<?xml version="1.0"?>
<svg xmlns="http://www.w3.org/2000/svg" xmlns:xlink="http://www.w3.org/1999/xlink" xmlns:svgjs="http://svgjs.com/svgjs" version="1.1" width="512" height="512" x="0" y="0" viewBox="0 0 32 32" style="enable-background:new 0 0 512 512" xml:space="preserve" class=""><g><g xmlns="http://www.w3.org/2000/svg" id="Display_Brightness" data-name="Display Brightness"><circle cx="16" cy="16" r="4" fill="#ffffff" data-original="#000000" class=""/><path d="m16 1a15 15 0 1 0 15 15 15 15 0 0 0 -15-15zm5 8.64 1.41-1.42a1 1 0 1 1 1.42 1.42l-1.42 1.41a1 1 0 0 1 -.7.29 1 1 0 0 1 -.71-.29 1 1 0 0 1 0-1.41zm-6-3.64a1 1 0 0 1 2 0v2a1 1 0 0 1 -2 0zm-6.78 2.22a1 1 0 0 1 1.42 0l1.41 1.42a1 1 0 0 1 0 1.41 1 1 0 0 1 -1.41 0l-1.42-1.41a1 1 0 0 1 0-1.42zm-3.22 7.78a1 1 0 0 1 1-1h2a1 1 0 0 1 0 2h-2a1 1 0 0 1 -1-1zm6.05 6.36-1.41 1.42a1 1 0 0 1 -.71.29 1 1 0 0 1 -.71-.29 1 1 0 0 1 0-1.42l1.42-1.36a1 1 0 0 1 1.41 1.41zm5.95 3.64a1 1 0 0 1 -2 0v-2a1 1 0 0 1 2 0zm-1-4a6 6 0 1 1 6-6 6 6 0 0 1 -6 6zm7.78 1.78a1 1 0 0 1 -.71.29 1 1 0 0 1 -.71-.29l-1.36-1.42a1 1 0 0 1 1.36-1.36l1.42 1.41a1 1 0 0 1 0 1.37zm2.22-6.78h-2a1 1 0 0 1 0-2h2a1 1 0 0 1 0 2z" fill="#ffffff" data-original="#000000" class=""/></g></g></svg>
