<svg id="Layer_1" enable-background="new 0 0 256 256" height="512" viewBox="0 0 256 256" width="512" xmlns="http://www.w3.org/2000/svg"><g><path d="m82.469 32h-53.395c-6.928 0-12.545 5.616-12.545 12.544v166.911c0 6.928 5.617 12.544 12.545 12.544h197.852c6.928 0 12.545-5.616 12.545-12.544v-166.911c0-6.928-5.617-12.544-12.545-12.544h-130.895z" fill="#87796f"/><path d="m226.926 225.5h-197.852c-7.745 0-14.045-6.3-14.045-14.044v-166.912c0-7.744 6.3-14.044 14.045-14.044h53.395c.829 0 1.5.671 1.5 1.5s-.671 1.5-1.5 1.5h-53.395c-6.09 0-11.045 4.955-11.045 11.044v166.911c0 6.09 4.955 11.044 11.045 11.044h197.852c6.09 0 11.045-4.955 11.045-11.044v-166.911c0-6.09-4.955-11.044-11.045-11.044h-130.895c-.829 0-1.5-.671-1.5-1.5s.671-1.5 1.5-1.5h130.895c7.744 0 14.045 6.3 14.045 14.044v166.911c0 7.745-6.301 14.045-14.045 14.045z" fill="#3a312a"/><path d="m220.69 56.95v142.1c0 3.87-3.14 7-7 7h-171.38c-3.87 0-7-3.13-7-7v-142.1c0-3.87 3.13-7 7-7h171.38c3.86 0 7 3.13 7 7z" fill="#fce8cb"/><path d="m213.69 207.55h-171.38c-4.687 0-8.5-3.813-8.5-8.5v-142.1c0-4.687 3.813-8.5 8.5-8.5h171.38c4.687 0 8.5 3.813 8.5 8.5v142.1c0 4.687-3.813 8.5-8.5 8.5zm-171.38-156.1c-3.033 0-5.5 2.467-5.5 5.5v142.1c0 3.033 2.467 5.5 5.5 5.5h171.38c3.032 0 5.5-2.467 5.5-5.5v-142.1c0-3.033-2.468-5.5-5.5-5.5z" fill="#3a312a"/><path d="m220.69 111.24v25.01l-185.38 44.77v-38.21z" fill="#8ac6dd"/><path d="m35.31 182.52c-.333 0-.661-.111-.928-.321-.361-.285-.572-.719-.572-1.179v-38.21c0-.732.527-1.356 1.248-1.479l185.38-31.57c.438-.074.883.048 1.22.332.337.285.532.704.532 1.146v25.01c0 .693-.475 1.295-1.147 1.458l-185.381 44.77c-.116.029-.234.043-.352.043zm1.5-38.444v35.038l182.38-44.045v-22.052z" fill="#3a312a"/><path d="m220.69 136.25v62.8c0 3.87-3.14 7-7 7h-171.38c-3.87 0-7-3.13-7-7v-18.03l57.97-14 54.89-13.26z" fill="#ed6e7a"/><path d="m213.69 207.55h-171.38c-4.687 0-8.5-3.813-8.5-8.5v-18.03c0-.693.475-1.295 1.148-1.458l185.38-44.77c.449-.109.92-.004 1.28.279.361.285.572.719.572 1.179v62.8c0 4.687-3.813 8.5-8.5 8.5zm-176.88-25.349v16.849c0 3.033 2.467 5.5 5.5 5.5h171.38c3.032 0 5.5-2.467 5.5-5.5v-60.895z" fill="#3a312a"/><path d="m220.69 93.76v17.48l-185.38 31.57v-85.86c0-3.87 3.13-7 7-7h82.74z" fill="#ed6e7a"/><path d="m35.31 144.31c-.352 0-.695-.124-.968-.354-.337-.285-.532-.704-.532-1.146v-85.86c0-4.687 3.813-8.5 8.5-8.5h82.74c.216 0 .429.046.625.136l95.641 43.81c.533.244.875.777.875 1.364v17.48c0 .732-.527 1.356-1.248 1.479l-185.38 31.57c-.085.014-.169.021-.253.021zm7-92.86c-3.033 0-5.5 2.467-5.5 5.5v84.083l182.38-31.059v-15.251l-94.467-43.273z" fill="#3a312a"/><path d="m220.69 56.95v36.81l-95.64-43.81h88.64c3.86 0 7 3.13 7 7z" fill="#d7e057"/><path d="m220.69 95.26c-.213 0-.426-.045-.625-.136l-95.64-43.809c-.641-.294-.991-.995-.841-1.684s.76-1.18 1.465-1.18h88.641c4.687 0 8.5 3.813 8.5 8.5v36.81c0 .511-.26.986-.689 1.262-.246.157-.527.237-.811.237zm-88.763-43.81 87.264 39.973v-34.473c0-3.033-2.468-5.5-5.5-5.5z" fill="#3a312a"/><path d="m99.047 116.206 16.779 62.62 86-86-117.478-31.478 11.073 41.325z" fill="#f6e2c6"/><path d="m115.826 180.326c-.129 0-.26-.017-.388-.051-.518-.139-.922-.543-1.061-1.061l-16.779-62.621c-.214-.8.26-1.623 1.061-1.837.801-.217 1.623.26 1.837 1.061l16.107 60.111 82.326-82.326-112.46-30.133 10.4 38.816c.214.8-.26 1.623-1.061 1.837-.798.217-1.623-.26-1.837-1.061l-11.072-41.325c-.139-.518.009-1.07.388-1.449s.933-.527 1.449-.388l117.479 31.478c.518.139.922.543 1.061 1.061s-.01 1.07-.389 1.449l-86 86.001c-.285.284-.668.438-1.061.438z" fill="#3a312a"/><path d="m200.13 162.67-7.44 43.38h-45.63l-58.74-10.07 4.96-28.96 3.77-22.02 51.12 8.76z" fill="#d7e057"/><path d="m192.69 207.55h-45.63c-.085 0-.17-.007-.254-.021l-58.739-10.07c-.816-.14-1.365-.915-1.225-1.732l8.73-50.979c.067-.393.288-.742.612-.972.325-.229.728-.319 1.12-.254l103.081 17.67c.392.067.741.288.971.612.23.325.321.728.254 1.12l-7.439 43.38c-.126.719-.75 1.246-1.481 1.246zm-45.503-3h44.238l6.972-40.655-100.122-17.163-8.224 48.023z" fill="#3a312a"/><path d="m86.38 49.95-16.64 59.19-34.43-9.68v-42.51c0-3.87 3.13-7 7-7z" fill="#8ac6dd"/><path d="m69.74 110.64c-.136 0-.272-.019-.406-.056l-34.43-9.68c-.647-.182-1.094-.772-1.094-1.444v-42.51c0-4.687 3.813-8.5 8.5-8.5h44.07c.47 0 .912.22 1.196.594.283.374.376.86.248 1.312l-16.64 59.19c-.107.383-.363.708-.71.902-.226.127-.479.192-.734.192zm-32.93-12.316 31.892 8.966 15.698-55.84h-42.09c-3.033 0-5.5 2.467-5.5 5.5z" fill="#3a312a"/><path d="m211.367 83.669c0 12.52-10.149 22.669-22.669 22.669s-22.669-10.149-22.669-22.669 10.149-22.669 22.669-22.669 22.669 10.149 22.669 22.669z" fill="#8ac6dd"/><path d="m188.698 107.838c-13.327 0-24.17-10.842-24.17-24.169s10.843-24.169 24.17-24.169c13.326 0 24.168 10.842 24.168 24.169s-10.842 24.169-24.168 24.169zm0-45.338c-11.673 0-21.17 9.497-21.17 21.169s9.497 21.169 21.17 21.169c11.672 0 21.168-9.497 21.168-21.169s-9.496-21.169-21.168-21.169z" fill="#3a312a"/><path d="m219.19 113.02v22.05l-15 3.62v-23.12z" fill="#6ca8bf"/><path d="m219.19 138.16v60.89c0 3.03-2.47 5.5-5.5 5.5h-15c3.03 0 5.5-2.47 5.5-5.5v-57.27z" fill="#d34e5c"/><path d="m219.19 94.72v15.25l-15 2.56v-10.34c3.41-2.85 6.02-6.62 7.45-10.93z" fill="#d34e5c"/><path d="m219.19 56.95v34.47l-6.78-3.1c.3-1.51.46-3.06.46-4.65 0-7.44-3.38-14.1-8.68-18.53v-8.19c0-3.03-2.47-5.5-5.5-5.5h15c3.03 0 5.5 2.47 5.5 5.5z" fill="#b9c239"/><path d="m209.87 83.67c0 5.55-2.15 10.62-5.68 14.4v-28.8c3.53 3.78 5.68 8.85 5.68 14.4z" fill="#6ca8bf"/></g></svg>